<?xml version="1.0" encoding="utf-8"?>
<!-- Generator: Adobe Illustrator 16.0.0, SVG Export Plug-In . SVG Version: 6.00 Build 0)  -->
<!DOCTYPE svg PUBLIC "-//W3C//DTD SVG 1.1//EN" "http://www.w3.org/Graphics/SVG/1.1/DTD/svg11.dtd">
<svg version="1.1" id="Capa_1" xmlns="http://www.w3.org/2000/svg" xmlns:xlink="http://www.w3.org/1999/xlink" x="0px" y="0px"
	 width="612px" height="792px" viewBox="0 0 612 792" enable-background="new 0 0 612 792" xml:space="preserve">
<path d="M17.479,654.224c1.282-11.187,1.515-22.723,3.962-33.676c3.612-15.965,8.506-31.695,13.401-47.427
	c2.447-8.04,8.273-13.867,14.799-18.994c19.693-15.614,42.416-25.053,65.954-32.511c29.714-9.438,59.662-18.179,89.609-27.268
	c0.932-0.232,1.864-0.35,1.981-0.35c0,9.438-0.117,18.761,0,28.083c0.117,14.217,3.845,27.501,10.021,40.202
	c19.227,39.503,44.863,73.646,81.335,99.048c4.195,2.913,7.225,3.146,11.536,0.116c40.086-28.083,67.586-65.837,86.23-110.467
	c6.991-16.78,6.06-34.726,4.544-52.438c-0.116-1.398-0.349-2.681-0.466-3.962c0.583-0.233,1.049-0.583,1.282-0.583
	c36.822,11.42,73.878,22.257,110.351,34.608c13.4,4.545,25.753,12.235,38.221,19.228c14.217,7.924,22.724,20.275,28.083,35.657
	c9.439,26.918,12.003,54.651,12.585,82.851c0.233,12.119,0,24.237,0,37.056c-3.379,0-5.826,0-8.39,0c-187.375,0-374.751,0-562.126,0
	c-0.932,0-1.981,0.116-2.913,0.116C17.479,686.968,17.479,670.538,17.479,654.224z"/>
<path d="M456.902,297.768c-0.582-14.449-5.593-19.926-18.645-22.723c0.117-1.165,0.233-2.331,0.35-3.496
	c1.398-19.577,3.846-39.27,3.962-58.846c0.117-22.14-4.544-43.698-16.779-62.575c-18.994-29.365-46.961-45.679-80.287-53.719
	c-9.206-2.214-18.761-3.379-28.083-5.011h-26.335c-1.748,0.35-3.379,1.049-5.127,1.165c-18.645,1.631-36.473,6.176-53.253,14.449
	c-27.967,13.867-49.524,33.677-59.778,64.09c-7.574,22.49-8.273,45.678-6.526,68.984c0.933,11.769,2.447,23.538,3.612,35.308
	c-10.953,1.515-15.498,5.593-17.479,16.197c-3.612,20.392,1.398,39.153,13.867,55.001c7.225,9.206,12.352,19.227,17.479,29.481
	c12.934,25.752,27.85,50.107,49.64,69.567c26.568,23.655,57.215,32.977,92.29,25.636c26.918-5.593,47.543-21.558,64.789-42.183
	c17.479-20.742,30.063-44.397,41.251-68.868c1.165-2.68,2.796-5.011,4.777-7.108C451.542,337.503,457.718,318.743,456.902,297.768z
	 M437.908,307.789c-1.631,13.051-6.292,24.937-16.663,34.143c-2.447,2.097-3.846,5.477-5.36,8.39
	c-9.788,18.877-18.527,38.337-29.364,56.632c-11.886,20.159-28.083,36.474-51.389,43.115c-10.021,2.913-20.625,3.962-30.88,5.826
	c-34.026-0.582-60.244-15.148-77.957-43.115c-12.468-19.692-22.14-41.25-33.21-61.875c-2.098-3.962-4.778-7.69-7.808-11.07
	c-11.419-12.585-15.614-27.384-14.566-44.047c0.117-1.398,0.583-2.796,1.282-3.962c2.33-3.962,4.661-8.739,10.138-7.341
	c3.847,0.962,6.241,3.371,7.23,6.927c2.01-1.481,4.11-2.829,6.297-3.998c-0.569-2.419-1.056-4.888-1.409-7.357
	c-0.583-1.282-0.932-2.68-0.932-4.195v-0.116c0-0.233-0.117-0.466-0.117-0.699c0,0-0.116,0-0.116,0.117
	c-0.699-3.846-1.748-7.341-1.981-10.837c-0.699-11.536-1.631-23.072-1.398-34.608c0.233-16.663,18.295-36.123,36.706-39.27
	c30.18-5.244,53.952,6.875,73.762,28.549c1.165,1.282,2.214,2.796,3.146,3.845c18.761-24.471,42.415-38.57,74.11-36.124
	c22.956,1.748,42.184,22.839,41.834,45.795c-0.233,12.701-1.516,25.403-2.447,38.104c0,0.699-0.233,1.398-0.466,2.214
	c-0.187,4.281-1.275,8.558-2.948,12.601c2.617,0.684,5.084,1.68,7.369,3.113c1.334-2.25,3.294-3.736,6.066-4.062
	c2.913-0.233,7.924,3.03,8.855,5.827C437.676,295.787,438.607,302.196,437.908,307.789z"/>
</svg>
