<?xml version="1.0" encoding="utf-8"?>
<!-- Generator: Adobe Illustrator 21.1.0, SVG Export Plug-In . SVG Version: 6.00 Build 0)  -->
<svg version="1.1" id="Capa_1" xmlns="http://www.w3.org/2000/svg" xmlns:xlink="http://www.w3.org/1999/xlink" x="0px" y="0px"
	 viewBox="0 0 525.2 525.2" style="enable-background:new 0 0 525.2 525.2;" xml:space="preserve">
<path d="M15,484.2c1.1-9.6,1.3-19.5,3.4-28.9c3.1-13.7,7.3-27.2,11.5-40.7c2.1-6.9,7.1-11.9,12.7-16.3
	c16.9-13.4,36.4-21.5,56.6-27.9c25.5-8.1,51.2-15.6,76.9-23.4c0.8-0.2,1.6-0.3,1.7-0.3c0,8.1-0.1,16.1,0,24.1
	c0.1,12.2,3.3,23.6,8.6,34.5c16.5,33.9,38.5,63.2,69.8,85c3.6,2.5,6.2,2.7,9.9,0.1c34.4-24.1,58-56.5,74-94.8
	c6-14.4,5.2-29.8,3.9-45c-0.1-1.2-0.3-2.3-0.4-3.4c0.5-0.2,0.9-0.5,1.1-0.5c31.6,9.8,63.4,19.1,94.7,29.7
	c11.5,3.9,22.1,10.5,32.8,16.5c12.2,6.8,19.5,17.4,24.1,30.6c8.1,23.1,10.3,46.9,10.8,71.1c0.2,10.4,0,20.8,0,31.8c-2.9,0-5,0-7.2,0
	c-160.8,0-321.6,0-482.4,0c-0.8,0-1.7,0.1-2.5,0.1C15,512.3,15,498.2,15,484.2z"/>
<path d="M392.1,178.3c-0.5-12.4-4.8-17.1-16-19.5c0.1-1,0.2-2,0.3-3c1.2-16.8,3.3-33.7,3.4-50.5c0.1-19-3.9-37.5-14.4-53.7
	c-16.3-25.2-40.3-39.2-68.9-46.1c-7.9-1.9-16.1-2.9-24.1-4.3h-22.6c-1.5,0.3-2.9,0.9-4.4,1c-16,1.4-31.3,5.3-45.7,12.4
	c-24,11.9-42.5,28.9-51.3,55c-6.5,19.3-7.1,39.2-5.6,59.2c0.8,10.1,2.1,20.2,3.1,30.3c-9.4,1.3-13.3,4.8-15,13.9
	c-3.1,17.5,1.2,33.6,11.9,47.2c6.2,7.9,10.6,16.5,15,25.3c11.1,22.1,23.9,43,42.6,59.7c22.8,20.3,49.1,28.3,79.2,22
	c23.1-4.8,40.8-18.5,55.6-36.2c15-17.8,25.8-38.1,35.4-59.1c1-2.3,2.4-4.3,4.1-6.1C387.5,212.4,392.8,196.3,392.1,178.3z
	 M375.8,186.9c-1.4,11.2-5.4,21.4-14.3,29.3c-2.1,1.8-3.3,4.7-4.6,7.2c-8.4,16.2-15.9,32.9-25.2,48.6c-10.2,17.3-24.1,31.3-44.1,37
	c-8.6,2.5-17.7,3.4-26.5,5c-29.2-0.5-51.7-13-66.9-37c-10.7-16.9-19-35.4-28.5-53.1c-1.8-3.4-4.1-6.6-6.7-9.5
	c-9.8-10.8-13.4-23.5-12.5-37.8c0.1-1.2,0.5-2.4,1.1-3.4c2-3.4,4-7.5,8.7-6.3c4,1,6.2,3.8,6.6,8c1.8-1.3,3.6-2.6,5.5-3.5
	c-0.7-2.7-1.3-5.5-1.7-8.3c-0.5-1.1-0.8-2.3-0.8-3.6c0,0,0-0.1,0-0.1c0-0.2-0.1-0.4-0.1-0.6c0,0-0.1,0-0.1,0.1
	c-0.6-3.3-1.5-6.3-1.7-9.3c-0.6-9.9-1.4-19.8-1.2-29.7c0.2-14.3,15.7-31,31.5-33.7c25.9-4.5,46.3,5.9,63.3,24.5
	c1,1.1,1.9,2.4,2.7,3.3c16.1-21,36.4-33.1,63.6-31c19.7,1.5,36.2,19.6,35.9,39.3c-0.2,10.9-1.3,21.8-2.1,32.7c0,0.6-0.2,1.2-0.4,1.9
	c-0.2,4.6-1.6,9.2-3.7,13.4c2.2,0.7,4.4,1.6,6.3,2.9c1-3.5,3-5.9,6.4-6.3c2.5-0.2,6.8,2.6,7.6,5
	C375.6,176.6,376.4,182.1,375.8,186.9z"/>
</svg>
