<?xml version="1.0" encoding="utf-8"?>
<!-- Generator: Adobe Illustrator 21.1.0, SVG Export Plug-In . SVG Version: 6.00 Build 0)  -->
<svg version="1.1" id="Capa_1" xmlns="http://www.w3.org/2000/svg" xmlns:xlink="http://www.w3.org/1999/xlink" x="0px" y="0px"
	 viewBox="0 0 525.2 525.2" style="enable-background:new 0 0 525.2 525.2;" xml:space="preserve">
<path d="M389.8,357.1c-13.2,33.7-37.6,47.7-72.1,47.3c-47.8-0.6-95.6,0-143.4-0.3c-6.9,0-12,2-17.2,6.4
	c-24.3,20.7-48.8,41.2-73.6,61.5c-3.7,3-8.9,5.6-13.5,5.9c-9.5,0.6-15.9-6.9-16-17.5c-0.1-17.1-0.2-34.3,0.1-51.4
	c0.1-4.8-1.3-7.1-5.9-8.9c-27.8-10.8-43.4-33.6-43.5-63.2c-0.1-43.2-0.2-86.5,0-129.7c0.1-38.5,28.4-66.6,67-66.8
	c20.9-0.1,41.9,0,62.7,0c1.6-8.6,2.3-16.8,4.7-24.5c8.5-26.9,32.8-45.2,61-45.3c86.2-0.3,172.3-0.3,258.5,0
	c35.9,0.2,64.3,29.5,64.5,65.6c0.2,44.5,0.1,89,0,133.5c-0.1,26.7-17,50.8-42.3,60.2c-5.4,2-7.3,4.5-7.2,10.4
	c0.5,16.6,0.1,33.3,0.2,49.9c0.1,7.6-2.6,13.8-9.6,16.8c-6.9,3-13.3,1.3-19.2-3.7C426.8,387.9,408.5,372.8,389.8,357.1z
	 M440.8,356.8c0-13.5-0.1-25.2,0-36.8c0.2-11.1,5.6-17.2,15.6-18.2c22.6-2.4,33.9-14.7,33.9-37.3c0-41.2,0.1-82.4,0-123.5
	c0-24.9-12.8-37.5-37.9-37.6c-34.3,0-68.5,0-102.8,0c-48.8,0-97.6,0-146.5,0c-20.2,0-34.5,13-34.6,32.1c-0.3,44.8-0.3,89.5,0,134.3
	c0.1,16.9,12.8,30.1,29.6,31.4c7.1,0.6,14.3,0.3,21.4,0.3c40.4,0.1,80.7,0.6,121.1,0.2c32.8-0.3,32.8-0.8,57.6,19.8
	C411.9,332.8,425.6,344.2,440.8,356.8z M358.7,334.9c-3.2,0-6,0-8.8,0c-48.3,0-96.7,0-145,0c-42.2,0-69.7-28.3-69.3-70.7
	c0.3-28.1,0-56.3-0.1-84.4c0-1.9-0.4-3.9-0.7-6.3c-21.2,0-41.9-0.1-62.5,0c-21.1,0.1-34.9,13.9-35,35.2c-0.1,42.7-0.1,85.5,0,128.2
	c0,19.8,12.7,33.3,32.3,35c11.3,0.9,17,6.8,17.3,18.3c0.2,10,0,20,0,29.9c0,1.8,0.5,3.6,0.9,6.3c19.3-16.2,37.9-31.4,56.1-47.1
	c6.2-5.4,12.7-7.6,20.9-7.5c53.4,0.2,106.9,0.2,160.3,0.1C346.1,371.8,360.2,356.6,358.7,334.9z"/>
<path d="M329.4,188c-35,0-70,0.1-105-0.2c-3.8,0-8.4-1.2-11.2-3.6c-5.9-5-3.5-14.7,4.1-17.3c2.6-0.9,5.5-1,8.3-1
	c68.2,0,136.4,0,204.6,0c2,0,4.1-0.1,6.1,0.1c7.9,0.5,11.9,4.4,11.8,11.1c-0.1,6.6-4.5,10.7-12.2,10.8c-20.4,0.2-40.9,0.1-61.3,0.1
	C359.6,188,344.5,188,329.4,188z"/>
<path d="M328.9,245.3c-34.2,0-68.5,0-102.7,0c-2.5,0-5.2,0.2-7.6-0.4c-5.3-1.2-8.4-4.8-8.4-10.4c0-5.6,3-9.1,8.3-10.5
	c1.4-0.4,3-0.3,4.6-0.3c70.8,0,141.5,0,212.3,0c8.2,0,12.5,3.5,12.9,9.9c0.4,7.3-4.1,11.6-12.8,11.6c-28.9,0.1-57.7,0-86.6,0
	C342.2,245.3,335.6,245.3,328.9,245.3z"/>
</svg>
