<?xml version="1.0" encoding="utf-8"?>
<!-- Generator: Adobe Illustrator 21.1.0, SVG Export Plug-In . SVG Version: 6.00 Build 0)  -->
<svg version="1.1" xmlns="http://www.w3.org/2000/svg" xmlns:xlink="http://www.w3.org/1999/xlink" x="0px" y="0px"
	 viewBox="0 0 612 792" style="enable-background:new 0 0 612 792;" xml:space="preserve">
<g id="Capa_1">
	<path d="M612.1,397.6c-0.1,169-137.3,306-306.2,305.9C137,703.4-0.1,566.2,0,397.3c0.1-169,137.3-306,306.2-305.9
		C475.1,91.5,612.2,228.7,612.1,397.6z M193,270.2c-7.3,18.2-11.5,34.7-11.6,51.9c-0.1,13.4-1.9,24.9-10.5,36.5
		c-13.7,18.5-14.1,41-12.2,63.2c4.6,52.4,32.4,89.3,86.4,98c39.9,6.4,80.5,5.2,120.6,0.4c24.1-2.9,45.3-13.5,61.8-32.1
		c16-18,23-39.7,25.6-63c3.3-29.2-0.3-56.7-20.9-79.7c-1-1.1-1.4-3.1-1.5-4.7c-0.4-10.4,0.3-20.9-1.3-31.1
		c-1.9-12.7-5.6-25.1-8.6-38c-4.4,1-7,1.6-9.6,2.2c-21.7,5.8-41.1,16.2-59.8,28.3c-2.2,1.4-5.2,2.6-7.7,2.5
		c-15.9-0.7-31.8-2.4-47.7-2.6c-10.5-0.1-21.7,4.2-31.4,1.9c-10.1-2.4-18.4-11.2-28.2-15.8C222.5,281.6,208,276.3,193,270.2z"/>
	<path d="M309.1,395.8c15.4-0.7,33.8-1.7,52.1-2.4c40.3-1.5,57.9,29.7,52.2,63.6c-3.9,22.9-17,38.4-39.1,44
		c-45.4,11.5-91.6,12.2-136.7-0.2c-37.1-10.2-51.9-54-31.4-86.8c8.8-14.1,22.3-20.3,38.2-20.3C265,393.8,285.6,395,309.1,395.8z
		 M275.7,447.5c-0.1-8.5-2.2-16.2-8-22.6c-7.5-8.2-18-8.3-25.6-0.2c-10.8,11.5-10.8,34.4,0,45.8c7.4,7.8,17.7,8,25.2,0.2
		C273.5,464.2,275.6,456.2,275.7,447.5z M378.1,447.2c0-8.2-2.2-15.8-7.7-22c-7.6-8.6-18.3-8.6-26-0.3c-10.6,11.5-10.6,33.8,0,45.3
		c7.8,8.4,18.5,8.4,26-0.3C376,463.4,378.2,455.7,378.1,447.2z"/>
</g>
<g id="Layer_2">
</g>
</svg>
