<?xml version="1.0" encoding="utf-8"?>
<!-- Generator: Adobe Illustrator 21.1.0, SVG Export Plug-In . SVG Version: 6.00 Build 0)  -->
<svg version="1.1" xmlns="http://www.w3.org/2000/svg" xmlns:xlink="http://www.w3.org/1999/xlink" x="0px" y="0px"
	 viewBox="0 0 612 792" style="enable-background:new 0 0 612 792;" xml:space="preserve">
<style type="text/css">
	.st0{display:none;}
	.st1{display:inline;}
</style>
<g id="Capa_1" class="st0">
	<path class="st1" d="M612.1,397.6c-0.1,169-137.3,306-306.2,305.9C137,703.4-0.1,566.2,0,397.3c0.1-169,137.3-306,306.2-305.9
		C475.1,91.5,612.2,228.7,612.1,397.6z M193,270.2c-7.3,18.2-11.5,34.7-11.6,51.9c-0.1,13.4-1.9,24.9-10.5,36.5
		c-13.7,18.5-14.1,41-12.2,63.2c4.6,52.4,32.4,89.3,86.4,98c39.9,6.4,80.5,5.2,120.6,0.4c24.1-2.9,45.3-13.5,61.8-32.1
		c16-18,23-39.7,25.6-63c3.3-29.2-0.3-56.7-20.9-79.7c-1-1.1-1.4-3.1-1.5-4.7c-0.4-10.4,0.3-20.9-1.3-31.1
		c-1.9-12.7-5.6-25.1-8.6-38c-4.4,1-7,1.6-9.6,2.2c-21.7,5.8-41.1,16.2-59.8,28.3c-2.2,1.4-5.2,2.6-7.7,2.5
		c-15.9-0.7-31.8-2.4-47.7-2.6c-10.5-0.1-21.7,4.2-31.4,1.9c-10.1-2.4-18.4-11.2-28.2-15.8C222.5,281.6,208,276.3,193,270.2z"/>
	<path class="st1" d="M309.1,395.8c15.4-0.7,33.8-1.7,52.1-2.4c40.3-1.5,57.9,29.7,52.2,63.6c-3.9,22.9-17,38.4-39.1,44
		c-45.4,11.5-91.6,12.2-136.7-0.2c-37.1-10.2-51.9-54-31.4-86.8c8.8-14.1,22.3-20.3,38.2-20.3C265,393.8,285.6,395,309.1,395.8z
		 M275.7,447.5c-0.1-8.5-2.2-16.2-8-22.6c-7.5-8.2-18-8.3-25.6-0.2c-10.8,11.5-10.8,34.4,0,45.8c7.4,7.8,17.7,8,25.2,0.2
		C273.5,464.2,275.6,456.2,275.7,447.5z M378.1,447.2c0-8.2-2.2-15.8-7.7-22c-7.6-8.6-18.3-8.6-26-0.3c-10.6,11.5-10.6,33.8,0,45.3
		c7.8,8.4,18.5,8.4,26-0.3C376,463.4,378.2,455.7,378.1,447.2z"/>
</g>
<g id="Layer_2" class="st0">
	<path class="st1" d="M2.2,396.5C3.6,227.3,139.9,91.6,307.3,92.9C477.1,94.1,612.5,231,611,400c-1.5,168.1-139,303.1-307.2,301.7
		C136.6,700.2,0.8,562.9,2.2,396.5z M336,361.3c0-10.3,0-18.5,0-27.3c-23,0-45.4,0-68,0c0,69.2,0,138,0,207c22.9,0,44.7,0,68,0
		c0-2.7,0-5.1,0-7.5c0-36.7,0.1-73.5,0-110.2c0-13.9,5.4-25,16.5-33.1c19.9-14.6,46.6-5.9,53.3,17.7c2.2,8,3,16.6,3.1,24.9
		c0.3,33.4,0.1,66.8,0.1,100.2c0,2.6,0,4.2,0,7c23.4,0,45.8,0,68.6,0c0.1-2.2,0.3-3.9,0.3-5.7c0-37.6,0.1-75.2-0.1-112.9
		c0-8.4-0.6-16.9-2-25.1c-5.1-29.8-18.9-53.5-49.1-63.7c-29.1-9.8-66.5-6.1-88,26.2C338.3,359.3,337.7,359.7,336,361.3z M228,540
		c0-68.9,0-137.4,0-206c-22.9,0-45.4,0-68,0c0,68.8,0,137.2,0,206C182.8,540,205.3,540,228,540z M194.1,305
		c19.4,0.1,34.2-10.2,38.2-26.5c4.7-19-5.4-37.3-23.6-43c-21.4-6.7-43.7,2.7-50.5,21.1C149.1,281.2,166.7,304.9,194.1,305z"/>
</g>
<g id="Layer_3" class="st0">
	<path class="st1" d="M3,397.5C4.9,227.9,138.9,92.8,308.4,92.9c170.1,0.1,305.2,135.9,304.8,305.5C612.9,568.4,477,703,307.9,702.7
		C138.3,702.5,4.5,567,3,397.5z M321.1,534.8c42.2-1.8,80.8-3.3,119.3-5c4.4-0.2,9-0.7,13-2.3c25-10.1,38.3-30.3,41.8-55.7
		c5.9-42.9,5.5-86.2,2.4-129.4c-1.1-14.6-1.3-29.3-7.7-42.9c-9.1-19.4-22.6-32.3-45.5-32.9c-30.8-0.9-61.5-2.4-92.3-3.7
		c-57.4-2.3-114.8-0.6-172.1,3c-10.9,0.7-21.7,1.9-30.7,9.1c-15.9,12.9-25.6,29.6-27.9,49.7c-4.9,41-5.1,82.2-2.2,123.4
		c1.3,18.9,2.6,37.7,13.5,54.1c9.6,14.5,21.2,26.4,40.1,27.1C223.3,531.2,274,533,321.1,534.8z"/>
	<path class="st1" d="M270.8,473.3c0-50.8,0-100.3,0-151c38.1,25.4,75.3,50.2,113.2,75.5C346.3,423,309.1,447.8,270.8,473.3z"/>
</g>
<g id="Layer_4">
	<path d="M601,320.2c-13.4,1-26.8,1.9-40.2,2.9c-5.9,0.4-11.9,1.4-17.8,1.4c-1.9,0-4.6-1.9-5.7-3.7c-6.9-11.2-13.8-22.4-20-34.1
		c-6.6-12.4-11.5-25.8-18.5-37.9c-7-12.2-14.5-24.5-23.9-34.7c-17.8-19.4-41.6-21.7-66.2-18.7c-27.6,3.4-55.2,6.8-82.6,11.4
		c-19.3,3.2-38.3,8.1-57.4,12.3c-10.7,2.4-21.4,4.8-32.6,7.4c0,15.8,0.1,31.2-0.1,46.5c-0.1,3.4-1.3,6.9-2.4,10.2
		c-0.4,1.1-2,2.7-3,2.7c-5.7-0.2-8.5,3.7-10.4,7.9c-4.2,9.2-7.8,18.6-11.7,28c-0.7,1.8-1.5,3.5-2.5,5.8c-15.6-8.6-31.6-5.9-46.9-2.4
		c-17.2,3.9-34.1,2.9-51.3,1.7c-5.7-0.4-11.6-0.3-17.1,1.1c-3.8,0.9-6.9,4.4-10.3,6.7c0.3,0.9,0.6,1.8,0.9,2.8c6,0,12,0.5,18-0.1
		c24.4-2.2,48.7-5.4,73.1-6.8c10.1-0.6,20.5,2.4,30.7,3.9c4.8,0.7,6.6,4.1,6.6,8.5c0.2,17.1,7.9,30.3,19.9,41.8
		c2.2,2.1,3.8,6,3.8,9.1c0,13.5-0.7,26.9-1.1,40.4c-0.2,5.7-3,7.8-8.9,9.1c-36.9,8-69.5,24.7-97.3,50.5
		c-24.4,22.6-43.3,49.4-60.9,77.2c-1.1,1.8-2.3,3.6-3.6,5.5c-54.2-68-85-191.5-29.9-308C90.8,144.2,225.4,74.3,359.4,98.2
		C499.8,123.2,580.9,232.4,601,320.2z"/>
	<path d="M222.5,449.3c14.3,3.1,26.4-3.8,39-7.7c28.2-8.6,56.4-16.9,86-18.4c7.3-0.4,15.2,0.1,22.1,2.4c10.7,3.6,20.8,3.4,31.5,1.1
		c28.6-6,56.6-2.1,83.3,8.9c43.3,17.9,74.9,48.4,94.9,91c1.8,3.9,1.2,6.5-0.5,9.8c-45.7,86-115.7,142.2-211.4,159.7
		C251.1,717.5,151.7,683.3,73.1,593c-3.6-4.2-4-7.3-1.3-12.1c14.1-24.6,27.4-49.6,45.3-71.8c15.6-19.5,34.7-34.2,57.7-43.9
		c8.9-3.7,17.7-7.7,26.8-10.8C208.4,452.1,215.6,451,222.5,449.3z M288.1,659.2c4.6-1.7,11-2.1,13.6-5.4
		c10.9-13.6,14.4-29.9,12.9-47.1c-0.1-1.4-0.7-3.3-1.7-4.1c-19.4-14.7-45.7-14-58.9,8.5c-5.3,9.1-6.5,19.1-5.5,29.3
		c0.3,3,2.2,6.7,4.6,8.4C263.4,655.9,275.2,657.8,288.1,659.2z M146.2,627.1c0.1,11.6,2.2,20.5,7.2,26.1
		c16.2,18.1,36.7,17.1,48.4-4.3c4.7-8.6,7.1-17.8,6.8-27.8c-0.3-11.1-3.9-20.7-14-25.9c-10.7-5.4-22.1-5.7-32.7,0.5
		C149.8,602.7,146.5,614.3,146.2,627.1z M423.5,618.3c-0.4-3.5-0.3-8.8-1.8-13.5c-1.6-4.7-4-11.6-7.6-12.8
		c-10.4-3.5-21.4-1.8-31.1,3.9c-12.3,7.3-17.5,21.3-13.5,37.5c2.9,11.9,9.3,21.2,22.5,23.9c7.5,1.5,23.6-5.8,28.8-13.5
		c0.7-1,1.1-2.4,1.2-3.6C422.5,633.4,422.9,626.6,423.5,618.3z"/>
	<path d="M466.9,420.6c-77.4-11.7-151.7,2.7-226.9,14.8c0.7-9.3,1.7-17.7,1.9-26.2c0.5-20.7,1-41.5,1-62.3c0-25.2-0.9-50.3-0.7-75.5
		c0.1-11,1.6-22,2.4-33c0.4-4.6,2.3-7.4,7.3-8.4c20.3-4.1,40.3-9.8,60.7-12.5c33.2-4.3,66.7-6.7,100.1-9.9c7.2-0.7,14.5-1,21.7-2
		c4.1-0.5,6.2,0.6,7.1,4.7c4.5,21.3,10.8,42.4,13.4,64c4.5,37.2,6.8,74.6,9.9,112C465.8,397.4,466.2,408.4,466.9,420.6z M389,255.6
		c-48.3-9.2-93.6,4.8-139.1,17.9c2.3,0.8,4.5,1.1,6.7,0.7c16.5-2.9,32.9-5.9,49.4-8.8c8.1-1.4,16.2-2.5,24.1-3.7
		c0.4,1.8,0.5,2,0.5,2.2c-0.6,1.2-1.1,2.4-1.8,3.5c-7.5,13.1-8.8,26.8-3.2,40.7c9.2,23.2,36.8,35.2,57.1,12.6
		c1.7-1.9,3.5-4.4,3.6-6.7c1.3-21.5-5.3-41-27.3-52.1c-1.2-0.6-2.2-1.5-3.3-2.3c0.1-0.7,0.2-1.4,0.3-2.1
		C366.8,256.8,377.9,256.2,389,255.6z M438.7,341c-3.9,0.8-7.2,1.7-10.5,2.2c-18.1,2.6-36.2,4.7-54.2,7.7c-23,3.9-45.8,9-68.8,12.6
		c-8.8,1.4-18-0.4-27-0.2c-6.9,0.2-13,2.5-17.9,9.6c3.2,0.2,5.1,0.4,7,0.5c36,1.7,70.9-6,105.9-12.8c19.8-3.9,39.8-7.4,59.7-10.6
		C440.6,348.7,440.9,348.8,438.7,341z M282.3,334.2c0.2,0.5,0.5,1.1,0.7,1.6c6.9-3.1,13.6-6.6,20.7-9.1c8.1-2.9,7.9-8.9,6.9-15.4
		c-1.8-10.5-6.1-19.8-17.1-23.2c-9.6-3-18.8-1.1-26.3,6.3c-6.7,6.6-8.5,15.9-3.8,25C267.4,326.9,271.3,335.2,282.3,334.2z"/>
	<path d="M587.5,516.5c-10-10.6-20-21.1-30-31.6c-3.8-4-7.6-8-11.4-12c-13.1-13.7-16.5-31.2-19-49c-2.9-20.6-3.4-41.4,1.3-61.8
		c2.1-9.1,6.5-17.6,10.1-26.3c0.4-1,2.4-1.7,3.8-1.8c18.8-2.3,37.6-4.6,56.4-6.6c1.7-0.2,5,2,5.4,3.5c14.4,63.4,9,125.1-16.2,185
		C587.9,516.2,587.7,516.3,587.5,516.5z"/>
	<path d="M518.3,370.9c5.1,25.6,7,50.2,5.7,76.6c-5.1-2-9.5-3.2-13.3-5.4c-10.5-6-20.8-12.4-31-18.9c-1.7-1.1-3.2-3.7-3.4-5.7
		c-2.3-30.3-3.9-60.7-6.6-90.9c-2.2-24.1-5.8-48.1-8.5-72.2c-1.3-11.8-2.1-23.6-3.2-36.4c10.7,4.4,17.4,11.8,23.4,19.9
		c5.8,7.8,11.2,15.9,16,24.3c1.4,2.4,0.4,6.5-0.4,9.6c-4.3,16.6-9.9,32.8-13,49.6c-2.8,15.1-1.2,30.4,5.9,44.5
		c5.5,11,12.6,13,23.7,7.4C514.9,372.5,516.2,371.9,518.3,370.9z"/>
	<path d="M501.5,286.2c3.6,2.8,7.8,5.1,10.6,8.5c12.4,14.7,17.7,31.4,11.9,50.3c-3,9.8-10.1,15.7-20.2,18c-5.1,1.2-8.2-0.5-8.4-5.9
		c-0.4-12.3-1.5-24.7-0.9-36.9c0.5-11.1,2.9-22.1,4.5-33.1C500,286.8,500.7,286.5,501.5,286.2z"/>
	<path d="M227.8,295.7c11.3,27,9.5,54.1,8.4,82c-8-1.6-11.4-7.1-14.7-12.8C211.3,346.4,214.3,310.9,227.8,295.7z"/>
	<path d="M289.2,633.7c-3.6-0.4-6.3-0.7-8.9-1c-8.9-1.1-15.2-6-15.9-12.4c-0.9-7.3,4.5-15.2,12.7-18.2c10.2-3.7,19.6-1.3,28,5
		c1.4,1,2.2,5,1.3,6.5c-3.8,6.4-8.2,12.5-12.8,18.4C292.6,633.3,290.2,633.4,289.2,633.7z"/>
	<path d="M257.3,631.2c14,8.1,26.4,17.4,41.7,6.5c3.8,6.4,2.3,10.6-4.7,12.1c-11.8,2.6-23.3,0.2-34.4-3.6c-1.3-0.4-2.3-2.9-2.5-4.6
		C257,638.5,257.3,635.2,257.3,631.2z"/>
	<path d="M194.9,641.7c-10.2,4.6-19.3,2.9-27.9-2.8c-2.9-2-5.5-4.4-8-6.9c-9.4-9.5-7.1-22.3,5-28.3c17.4-8.6,39.8,4.8,39.7,24
		c0,1.9-1.3,3.8-2,5.7c-1.9-0.8-3.8-1.5-5.6-2.6c-1.4-0.8-2.5-2-3.7-3.1c-0.6,0.3-1.2,0.7-1.8,1C192,632.8,193.4,636.9,194.9,641.7z
		"/>
	<path d="M156.1,640c12.4,9.9,25.5,12.8,40.8,8.5c-4.5,7.9-11.2,9.2-18,8.8C169.3,656.7,157.6,651,156.1,640z"/>
	<path d="M408.9,627.2c-6.5,0.4-13.5,1.2-20.4,1c-1.9,0-4.3-2.8-5.3-4.9c-1.4-2.9-1.8-6.3-2.3-9.6c-1.5-8,3-13.8,11-13.3
		c6.5,0.5,13,1.9,19.3,3.7c1.2,0.3,2.2,4.4,1.8,6.5C412.1,615.8,410.5,620.9,408.9,627.2z"/>
	<path d="M412.2,634c-0.2,13.1-15.2,15.3-28.7,14.5c-5.2-0.3-11.8-10.4-11.1-17.2C385.1,637.5,398.4,635.8,412.2,634z"/>
	<path d="M352.7,271.5c-4.1,3.8-7.9,7.1-11.5,10.6c-7.3,7.1-6.1,24.1,2.3,29.8c1.4,0.9,3.8,0.9,5.6,0.5c14.4-3.6,19.9-11,19.9-26.1
		c0-1.9,0-3.9,1.5-7c1.7,1.8,4.2,3.2,4.9,5.3c1.8,5.5,2.9,11.3,4,17.1c0.2,1-0.3,2.2-0.7,3.1c-6.5,15.3-29.8,21.8-42.7,11.6
		c-1.9-1.5-4-4-4.3-6.2c-1.9-11.9-2.1-23.7,3-35C338.4,267,344.2,265.6,352.7,271.5z"/>
	<path d="M355.8,285.5c1.9,0.7,5.9,1.4,5.9,2.1c0.1,2.8-0.6,6-2.1,8.4c-1.3,2.1-3.9,3.5-6.2,4.7c-1.8,0.9-5.1,2.2-6,1.4
		c-2.5-2.2-5-5.2-5.7-8.3c-0.4-1.7,2.6-4.9,4.8-6.1C349,286.2,352.4,286.2,355.8,285.5z"/>
	<path d="M286.9,290c-6.6,7.2-12.5,13.8-18.8,20.7C262.8,299.6,272.9,288.7,286.9,290z"/>
	<path d="M288.3,322.1c4.1-7.4,8.8-14.1,2.5-21.9c0.3-0.5,0.7-1,1-1.5c1.8,0.5,4,0.6,5.4,1.6c4.4,3.2,5.6,7.8,3.7,12.9
		C299,318.4,296.1,322.6,288.3,322.1z"/>
	<path d="M278.1,316.3c-0.7-0.9-2.9-2.6-2.9-4.1c0.2-4.5,2.6-8.2,7.6-8c1.7,0.1,4.6,2.5,4.6,3.8
		C287.3,312.5,284.7,315.6,278.1,316.3z"/>
</g>
</svg>
