<?xml version="1.0" encoding="utf-8"?>
<!-- Generator: Adobe Illustrator 21.1.0, SVG Export Plug-In . SVG Version: 6.00 Build 0)  -->
<svg version="1.1" id="Capa_1" xmlns="http://www.w3.org/2000/svg" xmlns:xlink="http://www.w3.org/1999/xlink" x="0px" y="0px"
	 viewBox="0 0 525.2 525.2" style="enable-background:new 0 0 525.2 525.2;" xml:space="preserve">
<path d="M261.8,112.9c0.4,0.3,1,0.2,1.4-0.2c32.2-31.1,70.3-52.2,114.2-57.5c25.3-3,51.2-0.7,76.8,0c12.5,0.3,19,8.7,18.1,22
	c-0.6,9.4,2.2,15.2,10,19.8c27.1,15.8,39.3,37.8,38.2,73.8c-2.9,89.3-0.9,178.8-1,268.2c0,25.6-8,31.3-30,22.5
	c-72.1-28.9-143.1-24.8-213.7,7.2c-7.6,3.5-18.9,3.7-26.5,0.3c-72.4-32.8-145-36.6-218.7-5.7c-15.7,6.6-26-0.6-26.1-18.9
	C4.5,343.8,4.4,243.2,5,142.6c0-7.5,4.8-16.9,10.1-22.2c57.5-58.2,123.3-68.3,195.3-36.2C227.6,91.8,243.6,102.5,261.8,112.9z
	 M39.8,421.6c69.7-22.4,137-19.4,204.4,6.6c0.8,0.3,1.6-0.3,1.6-1.2v-16.7c0-73.2,0-146.4,0-219.6c0-51.1,0.1-51.3-44.3-72.1
	C147.8,93.3,96.6,95.5,49,135.6c-7.7,6.5-11.1,13.5-11,24.5c0.5,81.5,0.2,162.9,0.2,244.4c0,4.7,0,9.4,0,15.9
	C38.2,421.2,39,421.8,39.8,421.6z M438.9,89.8c0-0.7-0.5-1.2-1.1-1.3c-55.5-5.6-104.8,7.8-147.7,45.9c-7.3,6.4-10.1,13.4-10,23.6
	c0.4,80.2,0.2,160.4,0.2,240.6c0,3.5,0.2,7,0.4,9.4c0.1,0.9,1,1.5,1.7,1.1c24.5-12.2,47.9-27,73.3-35.2c26-8.5,53.9-10.3,82.1-15.2
	c0.6-0.1,1-0.7,1-1.3V89.8z M485.5,418.4c0.7,0.1,1.2-0.4,1.4-1.1c0.1-1,0.3-2.5,0.3-4c0-86.4,0.3-172.9-0.4-259.3
	c0-6.6-5.4-13.1-8.7-19.7c-0.3-0.6-1-0.9-1.5-0.6l-2.8,1.2c-0.5,0.2-0.8,0.7-0.8,1.2c0,4.9,0,9.8,0,14.7c0,74.3,0,148.6,0,222.9
	c0,24-5.8,29.5-27.9,25.9c-21.4-3.5-42.5-2-62.3,2.5c-1.3,0.3-1.3,2.4,0.1,2.6C416.4,409.1,450.8,413.8,485.5,418.4z"/>
</svg>
