<?xml version="1.0" encoding="utf-8"?>
<!-- Generator: Adobe Illustrator 16.0.0, SVG Export Plug-In . SVG Version: 6.00 Build 0)  -->
<!DOCTYPE svg PUBLIC "-//W3C//DTD SVG 1.1//EN" "http://www.w3.org/Graphics/SVG/1.1/DTD/svg11.dtd">
<svg version="1.1" id="Capa_1" xmlns="http://www.w3.org/2000/svg" xmlns:xlink="http://www.w3.org/1999/xlink" x="0px" y="0px"
	 width="612px" height="792px" viewBox="0 0 612 792" enable-background="new 0 0 612 792" xml:space="preserve">
<path d="M305.067,221.559c0.467,0.35,1.166,0.233,1.632-0.233c37.521-36.24,81.918-60.827,133.074-67.003
	c29.48-3.496,59.661-0.815,89.492,0c14.566,0.35,22.141,10.138,21.092,25.636c-0.699,10.954,2.563,17.712,11.652,23.072
	c31.579,18.411,45.795,44.047,44.514,85.997c-3.38,104.059-1.049,208.351-1.166,312.525c0,29.831-9.321,36.473-34.958,26.219
	c-84.016-33.677-166.75-28.898-249.018,8.39c-8.856,4.078-22.024,4.312-30.88,0.35c-84.366-38.221-168.964-42.648-254.845-6.642
	c-18.295,7.69-30.297-0.699-30.414-22.024c0-117.226-0.117-234.452,0.583-351.678c0-8.739,5.593-19.693,11.77-25.869
	c67.003-67.819,143.678-79.588,227.577-42.183C265.215,196.972,283.86,209.44,305.067,221.559z M46.378,581.278
	c81.219-26.103,159.642-22.606,238.181,7.69c0.932,0.35,1.864-0.35,1.864-1.398v-19.46c0-85.298,0-170.596,0-255.894
	c0-59.545,0.117-59.778-51.622-84.016c-62.575-29.481-122.237-26.918-177.704,19.81c-8.973,7.574-12.935,15.731-12.818,28.549
	c0.583,94.97,0.233,189.823,0.233,284.792c0,5.478,0,10.954,0,18.528C44.513,580.812,45.445,581.511,46.378,581.278z
	 M511.438,194.641c0-0.815-0.583-1.398-1.282-1.515c-64.673-6.525-122.12,9.089-172.11,53.486
	c-8.507,7.458-11.77,15.615-11.652,27.5c0.466,93.455,0.232,186.91,0.232,280.364c0,4.079,0.233,8.157,0.467,10.954
	c0.116,1.049,1.165,1.747,1.98,1.281c28.549-14.216,55.816-31.462,85.414-41.018c30.297-9.904,62.809-12.002,95.669-17.712
	c0.699-0.116,1.165-0.815,1.165-1.515V194.641H511.438z M565.738,577.549c0.816,0.117,1.398-0.466,1.632-1.281
	c0.116-1.166,0.35-2.913,0.35-4.661c0-100.68,0.35-201.476-0.466-302.155c0-7.691-6.293-15.265-10.139-22.956
	c-0.349-0.699-1.165-1.048-1.747-0.699l-3.263,1.398c-0.583,0.233-0.933,0.816-0.933,1.398c0,5.71,0,11.419,0,17.129
	c0,86.58,0,173.159,0,259.739c0,27.966-6.759,34.375-32.511,30.18c-24.938-4.078-49.524-2.33-72.597,2.913
	c-1.515,0.35-1.515,2.797,0.116,3.03C485.219,566.712,525.304,572.188,565.738,577.549z"/>
</svg>
