<?xml version="1.0" encoding="utf-8"?>
<!-- Generator: Adobe Illustrator 16.0.0, SVG Export Plug-In . SVG Version: 6.00 Build 0)  -->
<!DOCTYPE svg PUBLIC "-//W3C//DTD SVG 1.1//EN" "http://www.w3.org/Graphics/SVG/1.1/DTD/svg11.dtd">
<svg version="1.1" id="Capa_1" xmlns="http://www.w3.org/2000/svg" xmlns:xlink="http://www.w3.org/1999/xlink" x="0px" y="0px"
	 width="612px" height="792px" viewBox="0 0 612 792" enable-background="new 0 0 612 792" xml:space="preserve">
<path fill-rule="evenodd" clip-rule="evenodd" d="M308.148,150.502c136.511,0.1,247.232,111.056,247.119,247.646
	c-0.114,137.309-111.355,247.482-249.521,247.127c-134.96-0.349-245.341-111.809-245.245-247.642
	C60.598,261.13,171.556,150.401,308.148,150.502z M398.594,398.787c-16.842,2.431-31.822,4.349-46.717,6.79
	c-41.357,6.777-82.677,13.778-124.016,20.674c-8.072,1.346-13.583,3.722-16.833,13.316c-10.636,31.409-23.279,62.133-34.702,93.287
	c-2.109,5.752-4.275,12.907-2.68,18.314c3.941,13.371,15.176,16.869,28.262,10.256c57.468-29.042,114.859-58.236,172.362-87.208
	c40.029-20.171,80.213-40.036,120.284-60.125c6.409-3.213,12.279-6.58,11.819-15.705c-0.422-8.345-4.904-13.874-11.204-17.153
	c-24.093-12.542-48.602-24.283-72.892-36.451c-40.914-20.495-81.765-41.115-122.67-61.626
	c-32.885-16.487-65.838-32.837-98.703-49.365c-8.651-4.351-17.007-2.658-23.298,3.231c-5.036,4.716-7.177,11.417-4.062,19.495
	c13.697,35.521,26.626,71.337,40.181,106.914c0.983,2.58,4.508,5.433,7.244,5.911c30.662,5.355,61.403,10.254,92.119,15.307
	C340.987,389.239,368.878,393.872,398.594,398.787z"/>
</svg>
