<?xml version="1.0" encoding="utf-8"?>
<!-- Generator: Adobe Illustrator 21.1.0, SVG Export Plug-In . SVG Version: 6.00 Build 0)  -->
<svg version="1.1" xmlns="http://www.w3.org/2000/svg" xmlns:xlink="http://www.w3.org/1999/xlink" x="0px" y="0px"
	 viewBox="0 0 612 792" style="enable-background:new 0 0 612 792;" xml:space="preserve">
<style type="text/css">
	.st0{display:none;}
	.st1{display:inline;}
</style>
<g id="Layer_1">
	<g id="Capa_1" class="st0">
		<path class="st1" d="M612.1,397.6c-0.1,169-137.3,306-306.2,305.9S-0.1,566.2,0,397.3c0.1-169,137.3-306,306.2-305.9
			S612.2,228.7,612.1,397.6z M193,270.2c-7.3,18.2-11.5,34.7-11.6,51.9c-0.1,13.4-1.9,24.9-10.5,36.5c-13.7,18.5-14.1,41-12.2,63.2
			c4.6,52.4,32.4,89.3,86.4,98c39.9,6.4,80.5,5.2,120.6,0.4c24.1-2.9,45.3-13.5,61.8-32.1c16-18,23-39.7,25.6-63
			c3.3-29.2-0.3-56.7-20.9-79.7c-1-1.1-1.4-3.1-1.5-4.7c-0.4-10.4,0.3-20.9-1.3-31.1c-1.9-12.7-5.6-25.1-8.6-38
			c-4.4,1-7,1.6-9.6,2.2c-21.7,5.8-41.1,16.2-59.8,28.3c-2.2,1.4-5.2,2.6-7.7,2.5c-15.9-0.7-31.8-2.4-47.7-2.6
			c-10.5-0.1-21.7,4.2-31.4,1.9c-10.1-2.4-18.4-11.2-28.2-15.8C222.5,281.6,208,276.3,193,270.2z"/>
		<path class="st1" d="M309.1,395.8c15.4-0.7,33.8-1.7,52.1-2.4c40.3-1.5,57.9,29.7,52.2,63.6c-3.9,22.9-17,38.4-39.1,44
			c-45.4,11.5-91.6,12.2-136.7-0.2c-37.1-10.2-51.9-54-31.4-86.8c8.8-14.1,22.3-20.3,38.2-20.3C265,393.8,285.6,395,309.1,395.8z
			 M275.7,447.5c-0.1-8.5-2.2-16.2-8-22.6c-7.5-8.2-18-8.3-25.6-0.2c-10.8,11.5-10.8,34.4,0,45.8c7.4,7.8,17.7,8,25.2,0.2
			C273.5,464.2,275.6,456.2,275.7,447.5z M378.1,447.2c0-8.2-2.2-15.8-7.7-22c-7.6-8.6-18.3-8.6-26-0.3c-10.6,11.5-10.6,33.8,0,45.3
			c7.8,8.4,18.5,8.4,26-0.3C376,463.4,378.2,455.7,378.1,447.2z"/>
	</g>
</g>
<g id="Layer_2_1_">
	<g>
		<path d="M2.2,412.1C2,230.7,136.8,88.1,316.5,93.4c81.5,2.4,151.6,34,208.2,92.5c56.6,58.5,85.3,130,85,211.2
			c-0.2,83.1-29.9,155.4-89.3,214.7c-59.1,59.1-131.3,88.6-214.2,88.9c-75.9,0.3-143.9-24.9-201.1-75.7
			C37.3,564.5,4.1,487.8,2.2,412.1z M502.6,390.8c-2.6-13.8-4.9-31.7-9.6-49c-10.9-39.6-33.5-71.8-65.8-97.2
			c-22.6-17.8-47.8-30-76-36.2c-22.8-5-45.6-7.1-68.8-3.1c-2.3,0.4-5.2-0.4-7.4-1.5c-29.7-15.9-60.4-19.9-92.9-9.9
			c-45.1,13.9-78.6,55.4-81.9,103.7c-1.6,23.2,3.9,44.9,15,65.3c1.2,2.2,2.3,5,1.9,7.3c-4.2,23.6-2.1,46.8,3.2,70
			c7.8,34.8,24.4,64.8,49.1,90.3c26.6,27.5,58.6,45.8,96.2,54.1c22.6,5,45.1,7.1,68.1,3.1c2.5-0.4,5.6,0.4,8,1.7
			c29.5,15.7,60,19.6,92.3,9.9c46.5-13.9,81.6-59.8,82.4-108.1c0.4-21.9-5-42.1-15.3-61.3c-1.2-2.3-1.8-5.4-1.6-8
			C500.1,412.9,501.2,404,502.6,390.8z"/>
		<path d="M307.2,271.4c26.4,0.8,50.9,4.7,71.6,21.1c10.6,8.4,18.4,18.7,20.9,32.5c2.1,11.7-2.8,21.9-13.8,27.2
			c-9.3,4.5-20.6,1.7-27.7-7.2c-2.6-3.2-5.1-6.7-6.9-10.4c-12.7-24.9-31-29.8-58.1-26.4c-7.4,1-14.9,3.9-21.4,7.6
			c-16.3,9.1-16.9,28.4-0.7,37.4c10,5.5,21.4,8.9,32.5,11.9c25.6,6.9,52,10.9,75.7,23.9c23.5,12.9,33.4,33,32.2,59.5
			c-1.5,34.2-26.7,55.8-52.1,64.5c-31.3,10.8-63.3,11.1-94.9,2.6c-26.8-7.2-46.9-23.7-57-50.3c-3.3-8.8-5.3-18.7,1.1-27.2
			c11.5-15.4,31.9-13.7,41.3,3.1c3.1,5.6,5.6,11.5,8.5,17.1c6.4,12.4,16.3,21.3,29.9,23.9c17.9,3.3,36,3.6,52.6-5.8
			c11-6.2,18.6-15.3,17.8-28.6c-0.8-13.8-10.1-22-22.1-26c-14.3-4.8-29.1-8.1-43.8-11.8c-19.5-5-39-9.9-56.4-21
			c-38-24.2-35.8-80.7,6.2-103.3C263.2,274.7,285.5,272.3,307.2,271.4z"/>
	</g>
</g>
</svg>
