<?xml version="1.0" encoding="utf-8"?>
<!-- Generator: Adobe Illustrator 21.1.0, SVG Export Plug-In . SVG Version: 6.00 Build 0)  -->
<svg version="1.1" xmlns="http://www.w3.org/2000/svg" xmlns:xlink="http://www.w3.org/1999/xlink" x="0px" y="0px"
	 viewBox="0 0 612 792" style="enable-background:new 0 0 612 792;" xml:space="preserve">
<style type="text/css">
	.st0{display:none;}
	.st1{display:inline;}
</style>
<g id="Capa_1" class="st0">
	<path class="st1" d="M612.1,397.6c-0.1,169-137.3,306-306.2,305.9C137,703.4-0.1,566.2,0,397.3c0.1-169,137.3-306,306.2-305.9
		C475.1,91.5,612.2,228.7,612.1,397.6z M193,270.2c-7.3,18.2-11.5,34.7-11.6,51.9c-0.1,13.4-1.9,24.9-10.5,36.5
		c-13.7,18.5-14.1,41-12.2,63.2c4.6,52.4,32.4,89.3,86.4,98c39.9,6.4,80.5,5.2,120.6,0.4c24.1-2.9,45.3-13.5,61.8-32.1
		c16-18,23-39.7,25.6-63c3.3-29.2-0.3-56.7-20.9-79.7c-1-1.1-1.4-3.1-1.5-4.7c-0.4-10.4,0.3-20.9-1.3-31.1
		c-1.9-12.7-5.6-25.1-8.6-38c-4.4,1-7,1.6-9.6,2.2c-21.7,5.8-41.1,16.2-59.8,28.3c-2.2,1.4-5.2,2.6-7.7,2.5
		c-15.9-0.7-31.8-2.4-47.7-2.6c-10.5-0.1-21.7,4.2-31.4,1.9c-10.1-2.4-18.4-11.2-28.2-15.8C222.5,281.6,208,276.3,193,270.2z"/>
	<path class="st1" d="M309.1,395.8c15.4-0.7,33.8-1.7,52.1-2.4c40.3-1.5,57.9,29.7,52.2,63.6c-3.9,22.9-17,38.4-39.1,44
		c-45.4,11.5-91.6,12.2-136.7-0.2c-37.1-10.2-51.9-54-31.4-86.8c8.8-14.1,22.3-20.3,38.2-20.3C265,393.8,285.6,395,309.1,395.8z
		 M275.7,447.5c-0.1-8.5-2.2-16.2-8-22.6c-7.5-8.2-18-8.3-25.6-0.2c-10.8,11.5-10.8,34.4,0,45.8c7.4,7.8,17.7,8,25.2,0.2
		C273.5,464.2,275.6,456.2,275.7,447.5z M378.1,447.2c0-8.2-2.2-15.8-7.7-22c-7.6-8.6-18.3-8.6-26-0.3c-10.6,11.5-10.6,33.8,0,45.3
		c7.8,8.4,18.5,8.4,26-0.3C376,463.4,378.2,455.7,378.1,447.2z"/>
</g>
<g id="Layer_2" class="st0">
	<path class="st1" d="M2.2,396.5C3.6,227.3,139.9,91.6,307.3,92.9C477.1,94.1,612.5,231,611,400c-1.5,168.1-139,303.1-307.2,301.7
		C136.6,700.2,0.8,562.9,2.2,396.5z M336,361.3c0-10.3,0-18.5,0-27.3c-23,0-45.4,0-68,0c0,69.2,0,138,0,207c22.9,0,44.7,0,68,0
		c0-2.7,0-5.1,0-7.5c0-36.7,0.1-73.5,0-110.2c0-13.9,5.4-25,16.5-33.1c19.9-14.6,46.6-5.9,53.3,17.7c2.2,8,3,16.6,3.1,24.9
		c0.3,33.4,0.1,66.8,0.1,100.2c0,2.6,0,4.2,0,7c23.4,0,45.8,0,68.6,0c0.1-2.2,0.3-3.9,0.3-5.7c0-37.6,0.1-75.2-0.1-112.9
		c0-8.4-0.6-16.9-2-25.1c-5.1-29.8-18.9-53.5-49.1-63.7c-29.1-9.8-66.5-6.1-88,26.2C338.3,359.3,337.7,359.7,336,361.3z M228,540
		c0-68.9,0-137.4,0-206c-22.9,0-45.4,0-68,0c0,68.8,0,137.2,0,206C182.8,540,205.3,540,228,540z M194.1,305
		c19.4,0.1,34.2-10.2,38.2-26.5c4.7-19-5.4-37.3-23.6-43c-21.4-6.7-43.7,2.7-50.5,21.1C149.1,281.2,166.7,304.9,194.1,305z"/>
</g>
<g id="Layer_3">
	<path d="M3,397.5C4.9,227.9,138.9,92.8,308.4,92.9c170.1,0.1,305.2,135.9,304.8,305.5C612.9,568.4,477,703,307.9,702.7
		C138.3,702.5,4.5,567,3,397.5z M321.1,534.8c42.2-1.8,80.8-3.3,119.3-5c4.4-0.2,9-0.7,13-2.3c25-10.1,38.3-30.3,41.8-55.7
		c5.9-42.9,5.5-86.2,2.4-129.4c-1.1-14.6-1.3-29.3-7.7-42.9c-9.1-19.4-22.6-32.3-45.5-32.9c-30.8-0.9-61.5-2.4-92.3-3.7
		c-57.4-2.3-114.8-0.6-172.1,3c-10.9,0.7-21.7,1.9-30.7,9.1c-15.9,12.9-25.6,29.6-27.9,49.7c-4.9,41-5.1,82.2-2.2,123.4
		c1.3,18.9,2.6,37.7,13.5,54.1c9.6,14.5,21.2,26.4,40.1,27.1C223.3,531.2,274,533,321.1,534.8z"/>
	<path d="M270.8,473.3c0-50.8,0-100.3,0-151c38.1,25.4,75.3,50.2,113.2,75.5C346.3,423,309.1,447.8,270.8,473.3z"/>
</g>
</svg>
